<?xml version="1.0" encoding="UTF-8"?>
<svg version="1.1" xmlns="http://www.w3.org/2000/svg" width="512" height="512">
<path d="M0 0 C3.39656006 1.91698939 6.38914417 4.2638271 9.4375 6.6875 C11.05908801 7.94413365 12.68276463 9.19807708 14.30859375 10.44921875 C15.47817627 11.35293213 15.47817627 11.35293213 16.67138672 12.27490234 C19.99424668 14.73656396 23.45579546 16.87184963 27 19 C27.23847656 18.30261719 27.47695312 17.60523437 27.72265625 16.88671875 C29.23443664 13.47018754 31.18449663 10.79060791 33.4375 7.8125 C34.21996094 6.76707031 35.00242188 5.72164062 35.80859375 4.64453125 C38.45707747 1.44841097 40.0342004 0.14647762 44.16796875 -0.48046875 C49.40298013 0.17590882 52.22538873 2.4986153 56.3125 5.6875 C57.91243154 6.8897607 59.51270144 8.09157123 61.11328125 9.29296875 C61.92490723 9.91091309 62.7365332 10.52885742 63.57275391 11.16552734 C67.33503861 14.00900021 71.16801367 16.75163364 75 19.5 C76.49519156 20.57887309 77.98998192 21.65830242 79.484375 22.73828125 C80.22623047 23.27404785 80.96808594 23.80981445 81.73242188 24.36181641 C84.03561684 26.02573094 86.33818908 27.69050407 88.640625 29.35546875 C95.41540742 34.25345334 102.19258102 39.14744088 109 44 C118.14293615 50.51739496 127.23392586 57.10677972 136.33203125 63.68652344 C149.29100224 73.10098087 149.29100224 73.10098087 162.3656311 82.35299683 C164.71349019 84.01798842 166.79969413 85.70531289 168.97103882 87.62039185 C179.09593684 96.3684606 188.41922061 96.3414972 201.3515625 96.0546875 C203.38462388 96.04830437 205.41770656 96.04693902 207.45077515 96.05032349 C212.76007177 96.0484859 218.06712374 95.99072156 223.37585449 95.91705322 C231.90519822 95.80665915 240.4349228 95.77513123 248.96488571 95.75769424 C251.93687704 95.74239184 254.90743154 95.698491 257.87905884 95.65084839 C259.69361826 95.63738582 261.50818335 95.62466021 263.32275391 95.61279297 C264.14664612 95.59205215 264.97053833 95.57131134 265.81939697 95.54994202 C269.43503583 95.54737665 271.53781822 95.65349612 274.47592163 97.85623169 C276.57457648 100.80819915 277.0690472 102.34049856 277 106 C275.35162355 109.91398637 273.06607265 113.42475832 270.69140625 116.93359375 C263.88657037 127.13024814 260.89896035 139.08581357 262.40625 151.2890625 C264.57800051 162.12196089 269.45680884 171.21342901 276 180 C277.0427763 183.12832889 277.12076845 185.29189087 277.11352539 188.57299805 C277.11344986 189.71395432 277.11337433 190.85491058 277.11329651 192.03044128 C277.10813522 193.26176285 277.10297394 194.49308441 277.09765625 195.76171875 C277.09553383 197.65311333 277.09553383 197.65311333 277.09336853 199.5827179 C277.08871575 202.93151709 277.07973342 206.28024811 277.06866455 209.62902832 C277.05842687 213.04760143 277.05386586 216.46618159 277.04882812 219.88476562 C277.03779099 226.58986261 277.02104686 233.29492737 277 240 C277.79696289 239.97905273 278.59392578 239.95810547 279.41503906 239.93652344 C283.02656434 239.85336678 286.63788824 239.80133966 290.25 239.75 C291.50425781 239.71648437 292.75851562 239.68296875 294.05078125 239.6484375 C295.25605469 239.63554687 296.46132813 239.62265625 297.703125 239.609375 C298.81333008 239.58842773 299.92353516 239.56748047 301.06738281 239.54589844 C304.6793832 240.1051992 305.79495532 241.14208662 308 244 C309.2150439 247.64513171 309.14756257 250.99354675 309.14526367 254.78857422 C309.15030159 255.97687332 309.15030159 255.97687332 309.15544128 257.18917847 C309.16494902 259.81103071 309.16689434 262.43281908 309.16796875 265.0546875 C309.17118158 266.87688219 309.17454567 268.69907661 309.17805481 270.52127075 C309.18404572 274.34279987 309.18589476 278.16430636 309.18530273 281.98583984 C309.18520114 286.88074057 309.19885046 291.77549614 309.21607494 296.67036247 C309.22719833 300.43475001 309.22922183 304.1991025 309.22869301 307.96350479 C309.22987272 309.76800156 309.23429403 311.57249924 309.24202538 313.37697983 C309.25183155 315.90230191 309.24894471 318.42730949 309.24291992 320.95263672 C309.24853943 321.69670776 309.25415894 322.44077881 309.25994873 323.20739746 C309.22914145 328.29359475 308.88377626 332.06325241 305.25488281 335.79418945 C302.32207505 337.36252396 300.23915615 337.3417523 296.921875 337.29296875 C295.76171875 337.28330078 294.6015625 337.27363281 293.40625 337.26367188 C292.1996875 337.23853516 290.993125 337.21339844 289.75 337.1875 C288.52796875 337.17396484 287.3059375 337.16042969 286.046875 337.14648438 C283.03080502 337.1111398 280.01562513 337.0617956 277 337 C277.00444122 337.89456406 277.00888245 338.78912811 277.01345825 339.71080017 C277.05364752 348.16976789 277.08404143 356.62870321 277.10362434 365.08774471 C277.11403078 369.43589817 277.12813218 373.78397228 277.15087891 378.13208008 C277.17271984 382.33366735 277.18459221 386.53517862 277.18975449 390.73681831 C277.19343014 392.33426674 277.20060744 393.93171133 277.21146011 395.52912712 C277.35940882 418.22262073 277.35940882 418.22262073 269 427 C263.19055285 431.59914566 257.75645331 433.24887213 250.39910412 433.25447559 C249.07946799 433.26030779 247.75983185 433.26613998 246.40020674 433.27214891 C244.94235639 433.26851598 243.48450651 433.26469162 242.0266571 433.26069641 C240.4728414 433.26371751 238.91902718 433.26760679 237.3652156 433.27228898 C233.09772827 433.28258318 228.83032482 433.28038353 224.56283057 433.27610838 C219.95943964 433.27364372 215.35606905 433.28265214 210.75268555 433.29014587 C201.73470108 433.30290248 192.71674637 433.30468534 183.69875439 433.30234561 C176.36868844 433.30056323 169.03863153 433.30231037 161.70856667 433.30657005 C160.66566692 433.30716524 159.62276718 433.30776043 158.54826442 433.30837366 C156.4296562 433.3095854 154.31104799 433.31079953 152.19243977 433.31201603 C132.31857306 433.32289545 112.44472332 433.32072728 92.57085565 433.31463119 C74.39019014 433.30946265 56.20957821 433.3207151 38.0289233 433.33972941 C19.36200996 433.35910261 0.69512199 433.36736465 -17.97180146 433.36360615 C-28.45220496 433.3616932 -38.93256285 433.36419079 -49.41295815 433.37832069 C-58.33585568 433.39022892 -67.25867954 433.3916457 -76.18157808 433.37953053 C-80.7335566 433.37363771 -85.28540034 433.37255354 -89.83736992 433.38453293 C-94.00669068 433.3953777 -98.17576389 433.39230513 -102.34507301 433.37827124 C-103.85110023 433.37562042 -105.35714676 433.37800297 -106.86315504 433.38600711 C-126.31047842 433.48216843 -126.31047842 433.48216843 -133.66358668 426.61788708 C-139.54042749 419.50327317 -140.72892055 412.20204591 -140.62818909 403.24159241 C-140.63528347 402.09741472 -140.64237786 400.95323704 -140.64968723 399.7743873 C-140.66721244 395.96130475 -140.64918868 392.14924888 -140.63110352 388.33618164 C-140.63348715 385.5939506 -140.64333901 382.85175743 -140.65278625 380.10954285 C-140.67111898 373.4468879 -140.66267971 366.78452718 -140.64469803 360.12188155 C-140.63064362 354.70409646 -140.62678532 349.28639097 -140.6301403 343.8685894 C-140.63061775 343.09601911 -140.63109519 342.32344881 -140.6315871 341.52746729 C-140.63261348 339.95774566 -140.63366885 338.38802404 -140.63475286 336.81830245 C-140.64331124 322.95245872 -140.62667368 309.08675654 -140.59692383 295.22094727 C-140.56809412 281.78371229 -140.56100134 268.34668125 -140.57641602 254.90942383 C-140.59319978 240.25875034 -140.5971898 225.60817358 -140.57970566 210.95749754 C-140.57786138 209.39340716 -140.57602665 207.82931677 -140.57420158 206.26522636 C-140.57328949 205.4957732 -140.5723774 204.72632004 -140.57143768 203.93355011 C-140.56584536 198.52642887 -140.56912731 193.11935505 -140.57574654 187.7122364 C-140.58350043 181.11669131 -140.57665371 174.52134652 -140.5515715 167.92584164 C-140.53912287 164.56431921 -140.53503941 161.20336558 -140.54411316 157.84179306 C-140.55283433 154.18933462 -140.53680466 150.53777478 -140.5146637 146.88539124 C-140.52290446 145.83478817 -140.53114523 144.7841851 -140.53963572 143.70174557 C-140.40449356 131.5781771 -135.94595966 122.04574646 -128 113 C-114.19279384 99.56470512 -97.76246101 95.55837048 -79.06054688 95.73632812 C-77.43619264 95.76137864 -75.81184367 95.78677327 -74.1875 95.8125 C-72.51238195 95.82758823 -70.83725061 95.84126925 -69.16210938 95.85351562 C-65.10773724 95.88616117 -61.05402056 95.93770908 -57 96 C-56.75445877 95.18556427 -56.50891754 94.37112854 -56.25593567 93.53201294 C-54.76619715 89.34248648 -52.88673884 85.46265942 -50.9050293 81.48779297 C-50.49336517 80.65453491 -50.08170105 79.82127686 -49.65756226 78.96276855 C-48.30089775 76.22034303 -46.93810225 73.48102931 -45.57421875 70.7421875 C-44.62498287 68.83220511 -43.67574889 66.92222178 -42.72651672 65.01223755 C-40.73817637 61.01458171 -38.74613882 57.01879048 -36.75219727 53.02392578 C-34.19921262 47.90696628 -31.66116409 42.78275055 -29.126544 37.65667534 C-27.17260774 33.71155409 -25.2079584 29.7718406 -23.24033546 25.83353043 C-22.29983766 23.94648485 -21.36333885 22.05744064 -20.43094444 20.16637802 C-19.1262823 17.52292601 -17.80666994 14.88746954 -16.4831543 12.25341797 C-16.10219101 11.47306183 -15.72122772 10.69270569 -15.32872009 9.88870239 C-11.87933712 3.0949697 -8.24540701 -1.45808128 0 0 Z M46 21 C44.41544134 22.78723941 44.41544134 22.78723941 42.875 25 C42.06675781 26.11375 42.06675781 26.11375 41.2421875 27.25 C40.83226562 27.8275 40.42234375 28.405 40 29 C44.13759234 33.42606989 48.72315295 36.89408636 53.625 40.4375 C55.33474293 41.68474847 57.04437526 42.93214856 58.75390625 44.1796875 C60.06125732 45.13053223 60.06125732 45.13053223 61.39501953 46.10058594 C64.67612953 48.49299791 67.94165724 50.90607698 71.20654297 53.32055664 C78.10739429 58.42289593 85.03550639 63.4848945 92 68.5 C100.58359269 74.68101263 109.10201249 80.94785667 117.60888672 87.23388672 C121.56991151 90.15956094 125.53510594 93.07957278 129.5 96 C134.26381471 99.50888924 139.02671798 103.01897803 143.78515625 106.53515625 C151.49539457 112.22964599 159.22163589 117.89882943 167 123.5 C175.58359269 129.68101263 184.10201249 135.94785667 192.60888672 142.23388672 C197.35115441 145.73659904 202.09894927 149.23181728 206.84619141 152.7277832 C210.9695507 155.76489958 215.09023841 158.8055497 219.20703125 161.8515625 C220.06167969 162.48320312 220.91632813 163.11484375 221.796875 163.765625 C223.42662052 164.97021951 225.05557784 166.17588143 226.68359375 167.3828125 C228.13665503 168.45615394 229.59409379 169.52360441 231.05664062 170.58398438 C232.76050966 171.82549699 234.43914979 173.10148228 236.11328125 174.3828125 C239.62521822 176.35025757 241.88167223 176.41299297 245.875 176.25 C247.02742187 176.21390625 248.17984375 176.1778125 249.3671875 176.140625 C250.23601562 176.09421875 251.10484375 176.0478125 252 176 C251.5991428 174.57877902 251.17849837 173.16313294 250.75 171.75 C250.51796875 170.96109375 250.2859375 170.1721875 250.046875 169.359375 C247.60450641 163.85493235 242.17267559 160.87472566 237.375 157.5625 C235.83923158 156.49045978 234.30409561 155.41751305 232.76953125 154.34375 C231.9801416 153.79203125 231.19075195 153.2403125 230.37744141 152.671875 C226.58141167 150.00241396 222.82084894 147.28464552 219.0625 144.5625 C218.31726074 144.02310791 217.57202148 143.48371582 216.80419922 142.92797852 C215.2913106 141.83262371 213.77861529 140.73700187 212.26611328 139.64111328 C208.513552 136.92351827 204.75656581 134.21205527 201 131.5 C199.49997854 130.41669638 197.99997854 129.33336304 196.5 128.25 C195.7575 127.71375 195.015 127.1775 194.25 126.625 C151.5 95.75 151.5 95.75 149.24902344 94.12426758 C147.75231299 93.04332809 146.25556832 91.96243599 144.75878906 90.8815918 C140.95817363 88.1370246 137.15819702 85.39158034 133.359375 82.64453125 C126.58459258 77.74654666 119.80741898 72.85255912 113 68 C103.85706385 61.48260504 94.76607414 54.89322028 85.66796875 48.31347656 C83.36221173 46.64616235 81.05619542 44.97920777 78.75 43.3125 C78.00476074 42.77383301 77.25952148 42.23516602 76.49169922 41.68017578 C71.22660233 37.87767019 65.94545063 34.09830844 60.65039062 30.33764648 C56.84930399 27.63089766 53.12004522 24.84664429 49.453125 21.9609375 C48.01231482 20.8161361 48.01231482 20.8161361 46 21 Z M-1 22 C-8.39774165 35.88798377 -15.5022843 49.90682865 -22.5 64 C-33.33961427 85.83062988 -33.33961427 85.83062988 -38.6171875 95.74609375 C-45.7474444 109.16451401 -52.48648473 122.78571409 -59.28076172 136.3762207 C-61.25602697 140.32685451 -63.23686565 144.274667 -65.21897316 148.22187138 C-66.75379367 151.28044332 -68.28501501 154.34080617 -69.81519699 157.40170097 C-70.54515643 158.86044026 -71.27641238 160.31853153 -72.00899124 161.77595711 C-73.02231149 163.79286362 -74.03059374 165.81220959 -75.03759766 167.83227539 C-75.61144196 168.97853897 -76.18528625 170.12480255 -76.77651978 171.30580139 C-78.13782643 173.81033984 -78.13782643 173.81033984 -78 176 C16.71 176 111.42 176 209 176 C204.65717689 171.65149395 204.65717689 171.65149395 199.98828125 167.90625 C199.23998047 167.35775391 198.49167969 166.80925781 197.72070312 166.24414062 C196.92599609 165.66857422 196.13128906 165.09300781 195.3125 164.5 C194.47525391 163.88833984 193.63800781 163.27667969 192.77539062 162.64648438 C186.45822467 158.03794332 180.11567714 153.46417088 173.77050781 148.89428711 C165.93310515 143.24484024 158.16115505 137.50767178 150.39111328 131.76611328 C146.43008838 128.84043897 142.46484283 125.92049694 138.5 123 C136.91664621 121.8333611 135.33331288 120.66669442 133.75 119.5 C132.574375 118.63375 132.574375 118.63375 131.375 117.75 C124.25 112.5 124.25 112.5 121.87475586 110.74975586 C120.29231815 109.58379194 118.70979869 108.41793896 117.12719727 107.25219727 C113.15448113 104.32568557 109.18323006 101.39722466 105.21484375 98.46484375 C97.50460543 92.77035401 89.77836411 87.10117057 82 81.5 C71.80658134 74.15975779 61.70598709 66.69545642 51.60449219 59.22949219 C42.3060556 52.35904393 32.98582124 45.52394353 23.59350586 38.78222656 C19.8252175 36.06949405 16.08670839 33.32488016 12.38671875 30.51953125 C11.28009888 29.68059326 11.28009888 29.68059326 10.15112305 28.82470703 C8.74684354 27.7559182 7.34580215 26.68285755 5.94848633 25.60498047 C2.8266529 22.92068672 2.8266529 22.92068672 -1 22 Z M-117.26953125 126.84765625 C-122.46185758 133.30583189 -123.73344474 139.55417846 -123.4453125 147.78515625 C-122.4159202 155.21664627 -118.62239889 161.32540302 -113.16796875 166.39453125 C-108.31617291 169.98748277 -102.15056323 174 -96 174 C-92.08614462 166.19541371 -88.1744235 158.38976263 -84.26545715 150.58272648 C-82.45049026 146.95802128 -80.63477777 143.33369355 -78.81738281 139.71020508 C-77.06500159 136.21627231 -75.31455089 132.72137879 -73.56546021 129.22579765 C-72.89630448 127.8893403 -72.22644237 126.5532364 -71.55587769 125.21748543 C-70.62003979 123.35302112 -69.68667428 121.48733945 -68.75390625 119.62133789 C-68.22095947 118.55766495 -67.6880127 117.493992 -67.13891602 116.39808655 C-65.9284995 114.29191571 -65.9284995 114.29191571 -66 113 C-70.12486211 112.91186192 -74.24947739 112.85922922 -78.375 112.8125 C-79.53128906 112.78736328 -80.68757813 112.76222656 -81.87890625 112.73632812 C-95.79159486 112.61842398 -107.61685277 116.50137213 -117.26953125 126.84765625 Z M205 113 C209.39475574 117.40860853 209.39475574 117.40860853 214.1875 120.98046875 C215.35055664 121.76043213 215.35055664 121.76043213 216.53710938 122.55615234 C217.34986328 123.09449707 218.16261719 123.6328418 219 124.1875 C226.11770071 128.95406168 232.91512284 133.92763965 239.53125 139.3671875 C240.75328125 140.17542969 240.75328125 140.17542969 242 141 C242.99 140.67 243.98 140.34 245 140 C245.17015625 139.03320312 245.3403125 138.06640625 245.515625 137.0703125 C246.81356609 130.00030824 248.27702043 123.45924646 251.23046875 116.85546875 C252.12769866 115.02688326 252.12769866 115.02688326 252 113 C236.49 113 220.98 113 205 113 Z M-123 180 C-123.11401703 209.48728724 -123.20252456 238.97456407 -123.25532665 268.46202539 C-123.26158032 271.94180635 -123.26805192 275.42158688 -123.2746582 278.90136719 C-123.27596976 279.59414057 -123.27728131 280.28691396 -123.2786326 281.00068048 C-123.30040029 292.22393603 -123.33982924 303.44706378 -123.38576398 314.67024347 C-123.43249088 326.18282814 -123.45991302 337.6953228 -123.47044247 349.20800042 C-123.47697253 355.67600312 -123.49236641 362.14371575 -123.52865028 368.61162567 C-123.56250344 374.69533699 -123.57307443 380.77863783 -123.56553841 386.86243439 C-123.56691772 389.09900643 -123.57691328 391.33559173 -123.59602737 393.57208252 C-123.62079783 396.61901949 -123.61496317 399.66439383 -123.60127258 402.71136475 C-123.61583679 403.60241338 -123.630401 404.49346202 -123.64540654 405.41151214 C-123.6354513 406.2276241 -123.62549606 407.04373607 -123.61523914 407.8845787 C-123.61713775 408.58782076 -123.61903635 409.29106281 -123.62099248 410.01561522 C-122.62325938 413.20387664 -120.78559494 414.27325886 -118 416 C-114.9458756 416.59478737 -114.9458756 416.59478737 -111.58906555 416.50336456 C-110.28637065 416.51379555 -108.98367575 416.52422654 -107.64150524 416.53497362 C-106.19760608 416.52632556 -104.75370915 416.51729894 -103.30981445 416.50793457 C-101.77463088 416.51254306 -100.23945172 416.51889563 -98.70428181 416.52684355 C-94.48372633 416.54356729 -90.26353186 416.5352768 -86.04297495 416.52289867 C-81.49211568 416.51386291 -76.94131927 416.52781057 -72.39047241 416.53881836 C-63.47459038 416.55662395 -54.55884289 416.55275452 -45.64295554 416.5411678 C-38.39815906 416.53214177 -31.15340034 416.53090587 -23.90859985 416.53526306 C-22.87828654 416.53587599 -21.84797322 416.53648893 -20.78643829 416.53712043 C-18.6935106 416.53839931 -16.60058293 416.53969616 -14.50765526 416.5410108 C5.12718605 416.55242257 24.76195273 416.53929352 44.3967818 416.51780933 C61.25186328 416.49993782 78.10683457 416.50304175 94.96191406 416.52148438 C114.52551113 416.54288053 134.08904274 416.55132388 153.65264988 416.53903532 C155.73796653 416.5377611 157.82328319 416.53650361 159.90859985 416.53526306 C160.93467037 416.53464596 161.96074089 416.53402886 163.01790446 416.53339306 C170.2557165 416.52993639 177.4934871 416.53577531 184.73129272 416.54518127 C193.5493219 416.5563887 202.36720862 416.55338769 211.18522143 416.5320583 C215.68609761 416.52153094 220.18673609 416.51745466 224.68761063 416.53065491 C228.80564733 416.54254988 232.92322538 416.53606447 237.04122031 416.5147447 C238.53306995 416.51026629 240.02495813 416.51257263 241.51678312 416.52224785 C243.54085075 416.53437076 245.56502651 416.51957153 247.58906555 416.50336456 C248.71450429 416.50271515 249.83994303 416.50206574 250.99948597 416.50139666 C254.70115667 415.88283421 256.36401815 414.62893789 259 412 C260.16881179 408.49356462 260.11998427 405.75098532 260.11352539 402.05004883 C260.11374443 400.99600609 260.11374443 400.99600609 260.1139679 399.92066956 C260.11327157 397.59942532 260.10549226 395.27826146 260.09765625 392.95703125 C260.09579108 391.3470616 260.09436764 389.73709139 260.09336853 388.12712097 C260.08955118 383.89057853 260.07972755 379.6540704 260.06866455 375.4175415 C260.05843364 371.09412093 260.05386731 366.77069481 260.04882812 362.44726562 C260.03810459 353.96482801 260.02103753 345.48241827 260 337 C258.58298546 336.98786972 258.58298546 336.98786972 257.13734436 336.97549438 C248.20733213 336.89779838 239.27746786 336.81000108 230.34764957 336.71247292 C225.75743152 336.66266061 221.1672348 336.61632996 216.5769043 336.578125 C212.14179103 336.54108098 207.70686319 336.49467072 203.27190971 336.44193649 C201.58519196 336.42349362 199.89843462 336.40834893 198.21165657 336.39665604 C183.52444441 336.29125589 170.64563241 335.22020123 159.1875 324.875 C150.00585294 314.98537052 148.7727704 303.99066679 148.70483398 291.20336914 C148.69337313 289.70522574 148.67301566 288.20712124 148.64331055 286.70922852 C148.40602733 274.72443783 149.76419479 264.88893379 157 255 C157.33 254.2575 157.66 253.515 158 252.75 C159.30385724 250.46824984 160.65267869 250.13129024 163 249 C164.21439591 248.1965896 165.42258068 247.38372681 166.625 246.5625 C176.85765332 240.26534742 187.6186234 240.53054706 199.2578125 240.48828125 C201.01473221 240.47141016 202.77164003 240.45325669 204.52853394 240.43388367 C209.12166629 240.38664116 213.7147504 240.35666599 218.30804443 240.33044434 C223.8358152 240.29523179 229.36340086 240.23829321 234.89102173 240.18505096 C243.26065671 240.10683941 251.63005443 240.05600563 260 240 C260 224.49 260 208.98 260 193 C255.63373383 192.99413376 251.26746765 192.98826752 246.76889038 192.98222351 C206.7022058 192.92701347 166.63556843 192.857036 126.56893774 192.77101372 C121.31451342 192.75974595 116.06008883 192.74860744 110.80566406 192.73754883 C109.75963062 192.73534514 108.71359718 192.73314146 107.63586576 192.730871 C90.71273187 192.69552697 73.78959802 192.6706465 56.86644094 192.64965298 C39.49353321 192.62786787 22.12067326 192.59479171 4.74780619 192.55129844 C-5.96669508 192.52482843 -16.68113687 192.50709882 -27.39566921 192.50065396 C-34.74934358 192.49538584 -42.10294318 192.47912116 -49.45657744 192.45433434 C-53.69520597 192.44036807 -57.93370079 192.43113022 -62.17235374 192.43499184 C-66.06155594 192.43842745 -69.95047364 192.42789286 -73.83961765 192.40676448 C-75.23823265 192.40153987 -76.63687753 192.40121552 -78.0354919 192.40660437 C-90.09961144 192.44831176 -101.88382371 191.26087778 -112.625 185.4375 C-113.75164062 184.83808594 -114.87828125 184.23867187 -116.0390625 183.62109375 C-117.01617187 183.08613281 -117.99328125 182.55117187 -119 182 C-120.33118466 181.32905319 -121.66408899 180.6614862 -123 180 Z M168.15625 267.15625 C164.01655559 273.75738432 164.56009184 280.63470644 164.5 288.1875 C164.45875 289.46431641 164.4175 290.74113281 164.375 292.05664062 C164.30529962 300.52959341 165.4914201 306.40433013 171 313 C178.05423001 319.4834482 185.31368239 320.29457966 194.59521484 320.22705078 C195.64947662 320.22734283 196.7037384 320.22763489 197.78994751 320.22793579 C201.26369547 320.22654596 204.73722715 320.21100086 208.2109375 320.1953125 C210.62374759 320.19158114 213.03655919 320.18873475 215.44937134 320.18673706 C221.79185183 320.1791103 228.13424035 320.15946991 234.47668457 320.1373291 C242.09087727 320.11324789 249.70510077 320.10408514 257.31932068 320.09242249 C268.87961104 320.07304508 280.43969969 320.03471562 292 320 C292 299.21 292 278.42 292 257 C272.87113047 256.85448332 272.87113047 256.85448332 253.7421875 256.75585938 C245.93602428 256.72601191 238.13015531 256.69076563 230.32421875 256.62280273 C224.02831682 256.56833234 217.73273062 256.53854734 211.43661118 256.52561378 C209.03890897 256.51640101 206.64122335 256.4984106 204.24365616 256.47134972 C200.87576697 256.4348612 197.50916947 256.43006314 194.14111328 256.43237305 C193.15783554 256.41439667 192.1745578 256.39642029 191.16148376 256.37789917 C181.69570691 256.44779074 174.16424055 259.75105235 168.15625 267.15625 Z " fill="#2F83E4" transform="translate(172,32)"/>
<path d="M0 0 C4.01656383 2.33315105 6.94091117 4.62903267 8.6875 9.046875 C10.07028777 15.07187887 9.96736992 19.67276381 6.6875 25.046875 C2.53130676 29.56575491 -0.8650319 31.88638529 -7.125 32.296875 C-11.84562813 32.21041661 -15.36161551 31.02412279 -18.7578125 27.58203125 C-23.11027478 22.49586818 -23.67162727 19.42169878 -23.5859375 12.875 C-23.16238508 8.49425783 -22.06931179 6.51056161 -19.3125 3.046875 C-13.50728887 -1.48118968 -7.00644998 -2.88779357 0 0 Z " fill="#47C5F2" transform="translate(383.3125,304.953125)"/>
<path d="M0 0 C5.81818182 1.16363636 5.81818182 1.16363636 8 4 C9.2150439 7.64513171 9.14756257 10.99354675 9.14526367 14.78857422 C9.15030159 15.97687332 9.15030159 15.97687332 9.15544128 17.18917847 C9.16494902 19.81103071 9.16689434 22.43281908 9.16796875 25.0546875 C9.17118158 26.87688219 9.17454567 28.69907661 9.17805481 30.52127075 C9.18404572 34.34279987 9.18589476 38.16430636 9.18530273 41.98583984 C9.18520114 46.88074057 9.19885046 51.77549614 9.21607494 56.67036247 C9.22719833 60.43475001 9.22922183 64.1991025 9.22869301 67.96350479 C9.22987272 69.76800156 9.23429403 71.57249924 9.24202538 73.37697983 C9.25183155 75.90230191 9.24894471 78.42730949 9.24291992 80.95263672 C9.24853943 81.69670776 9.25415894 82.44077881 9.25994873 83.20739746 C9.23551981 87.24054496 8.88335206 90.40615151 7 94 C4.41970421 96.41382509 3.5934292 97 0 97 C0 64.99 0 32.98 0 0 Z " fill="#91FCFE" transform="translate(472,272)"/>
<path d="M0 0 C3 2 3 2 4 5 C4.10125252 7.60501942 4.14684183 10.18335411 4.14526367 12.78857422 C4.15030159 13.97687332 4.15030159 13.97687332 4.15544128 15.18917847 C4.16494902 17.81103071 4.16689434 20.43281908 4.16796875 23.0546875 C4.17118158 24.87688219 4.17454567 26.69907661 4.17805481 28.52127075 C4.18404572 32.34279987 4.18589476 36.16430636 4.18530273 39.98583984 C4.18520114 44.88074057 4.19885046 49.77549614 4.21607494 54.67036247 C4.22719833 58.43475001 4.22922183 62.1991025 4.22869301 65.96350479 C4.22987272 67.76800156 4.23429403 69.57249924 4.24202538 71.37697983 C4.25183155 73.90230191 4.24894471 76.42730949 4.24291992 78.95263672 C4.24853943 79.69670776 4.25415894 80.44077881 4.25994873 81.20739746 C4.23560578 85.22635189 3.92223803 88.43281377 2 92 C1.01 92.495 1.01 92.495 0 93 C0 62.31 0 31.62 0 0 Z " fill="#E2FEFF" transform="translate(477,274)"/>
</svg>
