<svg version="1.1" id="Layer_1" xmlns="http://www.w3.org/2000/svg" xmlns:xlink="http://www.w3.org/1999/xlink" x="0px" y="0px"
	 width="100%" viewBox="0 0 512 512" enable-background="new 0 0 512 512" xml:space="preserve">
<path fill="#000000" opacity="1.000000" stroke="none" 
	d="
M291.000000,513.000000 
	C194.023544,513.000000 97.547081,513.000000 1.035313,513.000000 
	C1.035313,342.398529 1.035313,171.797028 1.035313,1.097768 
	C171.559799,1.097768 342.119690,1.097768 512.839783,1.097768 
	C512.839783,171.666550 512.839783,342.333252 512.839783,513.000000 
	C439.130341,513.000000 365.315155,513.000000 291.000000,513.000000 
M107.899216,468.991669 
	C133.008545,468.994080 158.117905,469.016479 183.227219,468.993713 
	C212.490295,468.967163 241.753326,468.901123 271.942566,468.990601 
	C303.975189,468.941681 336.007843,468.892761 368.957947,468.992432 
	C384.934601,468.938782 400.911255,468.885132 417.828522,468.983276 
	C434.882202,468.932983 451.935883,468.882690 469.903717,468.990936 
	C472.563019,468.996979 475.228973,469.128052 477.880493,468.987335 
	C489.092377,468.392212 498.525848,461.526764 497.056244,449.328796 
	C496.681213,446.216003 496.722168,442.990234 497.051697,439.867035 
	C498.071777,430.198395 493.468842,424.038635 485.813019,419.743042 
	C493.551239,415.924622 498.052887,410.272949 497.069550,401.071167 
	C496.647614,397.122711 496.998932,393.091583 496.999237,389.098022 
	C496.999939,380.502960 493.604675,375.895782 485.233887,372.264374 
	C490.334442,369.495270 495.858795,366.160522 496.606903,360.343719 
	C497.629913,352.389923 497.286377,344.117493 496.403717,336.105530 
	C495.663147,329.383118 489.548767,326.734894 484.857910,324.013733 
	C492.062439,321.869659 496.999664,315.438019 496.999725,308.199097 
	C496.999786,302.554413 497.306763,296.888000 496.907013,291.271820 
	C496.583130,286.721161 494.661316,282.931244 490.738129,279.825684 
	C483.994324,274.487396 476.440002,276.258911 468.099243,276.020447 
	C453.745331,275.975006 439.391418,275.929535 425.003052,274.961884 
	C425.002014,217.973312 425.008331,160.984741 424.964691,103.996193 
	C424.963409,102.298637 424.438232,100.601494 424.044983,98.269318 
	C423.715118,97.781464 423.385254,97.293602 422.816132,96.191589 
	C416.842438,90.222908 410.895142,84.227509 404.889252,78.291420 
	C394.307892,67.833084 383.690674,57.410973 372.674377,46.262844 
	C366.781525,45.841576 360.889191,45.062008 354.995789,45.054024 
	C290.333588,44.966389 225.671265,44.992321 161.008972,45.004818 
	C148.345642,45.007267 135.682327,45.084164 122.090935,44.981419 
	C117.769562,44.987801 113.425659,44.721306 109.133003,45.075600 
	C104.640930,45.446350 99.903931,45.979622 98.458458,52.056187 
	C98.356529,52.361389 98.254593,52.666588 97.990753,53.900299 
	C97.985031,99.302856 97.967377,144.705414 97.981812,190.107971 
	C97.985512,201.745132 98.090538,213.382248 98.005470,225.480621 
	C98.005470,225.480621 97.908142,225.953735 96.983070,225.992706 
	C79.224899,225.995209 61.459072,225.712372 43.713604,226.188461 
	C38.907070,226.317398 33.693951,227.907562 29.479546,230.273560 
	C18.291277,236.554810 15.836421,247.131409 17.026121,259.983521 
	C17.017431,321.576477 16.997633,383.169464 17.048132,444.762390 
	C17.049829,446.831940 17.761082,448.900909 18.185318,451.675446 
	C23.165857,463.414703 32.838593,468.600922 44.786148,468.885406 
	C65.184654,469.371155 85.605103,468.935150 106.493156,468.994751 
	C106.493156,468.994751 106.964920,468.866180 107.899216,468.991669 
z"/>
<path fill="#ECEFF1" opacity="1.000000" stroke="none" 
	d="
M123.018997,45.126720 
	C135.682327,45.084164 148.345642,45.007267 161.008972,45.004818 
	C225.671265,44.992321 290.333588,44.966389 354.995789,45.054024 
	C360.889191,45.062008 366.781525,45.841576 372.525696,46.862717 
	C372.224731,63.201817 371.939453,78.942795 372.146027,94.677307 
	C372.164673,96.099144 375.334198,98.664124 377.074127,98.693298 
	C392.336700,98.949303 407.606934,98.749557 423.190948,98.766281 
	C423.723755,98.866501 423.940521,98.885330 424.157349,98.904160 
	C424.438232,100.601494 424.963409,102.298637 424.964691,103.996193 
	C425.008331,160.984741 425.002014,217.973312 424.555420,275.496338 
	C407.777832,276.054749 391.441803,275.834747 375.121399,276.241852 
	C369.778351,276.375092 364.475922,278.137817 358.836792,279.136963 
	C358.311401,279.162506 358.104126,279.206390 357.436707,279.210876 
	C329.352264,279.198029 301.727905,279.224579 273.766907,279.168121 
	C272.606232,279.342255 271.782227,279.599396 270.514893,279.911255 
	C267.394348,280.029846 264.717133,280.093719 261.595276,280.101501 
	C258.764282,279.972839 256.377869,279.900299 253.899414,279.662842 
	C253.659241,279.285156 253.467896,279.123627 253.179077,278.546936 
	C253.137924,263.737366 253.151031,249.394150 253.617081,235.003296 
	C292.877502,234.929718 331.685028,234.917755 370.492432,234.842697 
	C372.789093,234.838257 375.541931,235.015289 377.262573,233.872940 
	C379.307098,232.515518 381.499634,229.960968 381.808197,227.679108 
	C382.681091,221.223999 379.895477,218.888916 372.459137,218.886749 
	C320.659393,218.871643 268.859680,218.891006 217.059937,218.871597 
	C196.075104,218.863739 175.090317,218.786499 154.074814,218.456055 
	C154.003693,217.789185 153.963257,217.407059 153.982941,216.671814 
	C157.699371,211.062485 160.559937,204.925018 165.188492,200.745560 
	C173.212540,193.500137 182.331085,187.466827 191.344742,180.967072 
	C193.794189,184.012924 195.889511,187.016891 198.092514,190.350616 
	C199.376114,192.487152 200.552017,194.293961 202.099319,196.671448 
	C205.958878,188.445160 209.377914,181.157791 213.275894,173.922043 
	C266.720673,173.987701 319.686523,174.002274 372.652374,174.011612 
	C373.650635,174.011795 374.701385,174.141464 375.638000,173.884277 
	C379.471893,172.831512 382.162323,170.891373 382.061066,166.287552 
	C381.933807,160.500900 379.204987,158.029404 372.193420,158.024170 
	C321.393188,157.986252 270.592957,157.966110 219.847931,157.569733 
	C222.407654,151.163681 224.912170,145.128265 227.650604,138.529175 
	C224.517685,138.028488 222.277023,137.670410 219.622437,137.214874 
	C200.455811,133.952209 181.703094,130.787003 161.853180,127.436607 
	C164.738586,132.500046 166.833099,136.261719 169.014755,139.972168 
	C170.354279,142.250366 170.052933,143.742523 167.702728,145.334091 
	C161.647736,149.434570 155.798065,153.838242 149.490295,158.088165 
	C143.127625,158.904022 140.730972,161.318787 140.154541,167.376801 
	C139.147217,169.269592 138.283432,170.865051 137.242523,172.335083 
	C125.565170,188.826950 120.813576,206.753006 125.535446,226.756073 
	C124.495399,226.700882 123.804520,226.625763 123.080490,226.117752 
	C123.037895,165.498825 123.028450,105.312775 123.018997,45.126720 
M258.500000,97.150742 
	C223.178818,97.150742 187.857544,97.115341 152.536667,97.220039 
	C149.804413,97.228127 146.531540,97.475922 144.495392,98.962288 
	C142.408173,100.485924 140.242493,103.770691 140.425949,106.102516 
	C140.707886,109.685905 143.166122,112.903900 147.645767,113.089020 
	C148.644104,113.130280 149.644089,113.148170 150.643326,113.148232 
	C198.960052,113.150993 247.276779,113.151360 295.593506,113.146164 
	C296.758606,113.146034 297.956848,113.242981 299.082703,113.014305 
	C302.703094,112.278908 305.019745,110.478561 305.051697,106.300797 
	C305.099701,100.027168 302.468597,97.237572 295.487427,97.179848 
	C283.492340,97.080673 271.495880,97.151566 258.500000,97.150742 
z"/>
<path fill="#E3A76F" opacity="1.000000" stroke="none" 
	d="
M253.991455,279.827759 
	C256.377869,279.900299 258.764282,279.972839 261.582275,280.558167 
	C261.991119,299.695618 261.968414,318.320312 261.483307,336.965576 
	C244.540253,336.991699 228.059326,336.949890 211.579193,337.044373 
	C208.452881,337.062286 205.307770,337.477570 202.208710,337.953125 
	C185.461075,340.523193 174.669861,353.245758 172.188690,367.932465 
	C169.400589,384.436005 177.396255,399.717529 192.381927,406.476288 
	C198.248642,409.122253 205.084183,410.546478 211.541031,410.777313 
	C228.333542,411.377625 245.160690,411.008392 261.981689,411.492950 
	C261.992462,421.614868 262.000122,431.269775 261.997437,440.924713 
	C261.994965,449.807861 259.767151,451.999939 250.734650,452.000183 
	C181.318954,452.001984 111.903221,452.035004 42.487621,451.955841 
	C34.371914,451.946564 26.256916,451.313843 18.141594,450.970154 
	C17.761082,448.900909 17.049829,446.831940 17.048132,444.762390 
	C16.997633,383.169464 17.017431,321.576477 17.326689,259.761108 
	C22.666807,273.137695 31.761486,279.966339 45.121319,279.969360 
	C114.430763,279.985046 183.740204,279.963806 253.287750,279.942963 
	C253.525833,279.930511 253.991455,279.827759 253.991455,279.827759 
z"/>
<path fill="#C48958" opacity="1.000000" stroke="none" 
	d="
M253.049652,279.955414 
	C183.740204,279.963806 114.430763,279.985046 45.121319,279.969360 
	C31.761486,279.966339 22.666807,273.137695 17.387188,259.299805 
	C15.836421,247.131409 18.291277,236.554810 29.479546,230.273560 
	C33.693951,227.907562 38.907070,226.317398 43.713604,226.188461 
	C61.459072,225.712372 79.224899,225.995209 97.700134,226.067200 
	C98.595222,226.173843 98.773247,226.205994 99.307541,226.446350 
	C107.480415,226.619888 115.297028,226.585251 123.113640,226.550629 
	C123.804520,226.625763 124.495399,226.700882 125.781715,227.040482 
	C128.227158,231.208984 130.077164,235.113037 131.971527,239.309219 
	C132.352509,240.055313 132.689133,240.509277 133.109283,241.189026 
	C133.351898,241.712387 133.590042,241.918732 133.975906,242.373779 
	C138.126541,249.204407 143.590302,254.149323 151.240646,258.517761 
	C149.468170,247.248871 147.188370,237.039474 151.282349,226.895447 
	C182.327240,226.917847 212.891251,226.920700 243.455261,226.943817 
	C250.005722,226.948776 251.758102,228.446991 253.164154,235.050934 
	C253.151031,249.394150 253.137924,263.737366 253.096771,278.775330 
	C253.068726,279.470093 253.049652,279.955414 253.049652,279.955414 
z"/>
<path fill="#FFD064" opacity="1.000000" stroke="none" 
	d="
M359.154938,279.155365 
	C364.475922,278.137817 369.778351,276.375092 375.121399,276.241852 
	C391.441803,275.834747 407.777832,276.054749 424.572632,275.957397 
	C439.391418,275.929535 453.745331,275.975006 468.793579,276.330139 
	C479.413391,280.862427 483.314514,288.262726 483.204102,299.096222 
	C483.100067,309.302368 481.673004,318.178406 470.630615,324.041107 
	C476.146149,324.041107 480.130951,324.041107 484.115723,324.041107 
	C489.548767,326.734894 495.663147,329.383118 496.403717,336.105530 
	C497.286377,344.117493 497.629913,352.389923 496.606903,360.343719 
	C495.858795,366.160522 490.334442,369.495270 484.748535,372.564514 
	C480.497009,372.553986 476.730865,372.243317 473.033173,371.606384 
	C477.228210,367.416840 481.661713,363.639557 482.523438,357.668610 
	C483.089294,353.747803 482.894928,349.714050 482.993835,345.729706 
	C483.345459,331.567902 476.459778,324.082336 461.387085,324.038391 
	C429.566040,323.945618 397.744507,324.024933 365.559448,324.015869 
	C358.595428,322.262115 353.814545,317.993164 352.309418,311.620453 
	C351.071533,306.379211 351.813904,300.670258 351.752197,294.740997 
	C351.570587,288.564087 354.203766,284.072052 358.245911,279.989563 
	C358.702393,279.642456 358.928650,279.398895 359.154938,279.155365 
z"/>
<path fill="#FFE177" opacity="1.000000" stroke="none" 
	d="
M468.989563,468.832397 
	C451.935883,468.882690 434.882202,468.932983 417.043152,468.655518 
	C400.154022,468.238037 384.050323,468.148285 367.560303,468.028625 
	C358.472504,466.659241 352.207489,459.712158 351.984161,451.021667 
	C351.877625,446.876221 351.940369,442.725800 351.961243,438.577820 
	C352.007751,429.337585 356.002167,423.916901 365.323669,420.927551 
	C368.030701,420.587219 370.312866,420.046143 372.596527,420.039642 
	C395.013672,419.975952 417.431610,419.910400 439.848145,420.042358 
	C449.937256,420.101715 460.023712,420.605713 470.427490,420.910156 
	C471.165222,420.913086 471.586853,420.913849 472.197205,421.194550 
	C479.325684,424.903198 482.689606,430.632568 482.973328,438.227570 
	C483.116211,442.052887 483.136078,445.893890 482.969177,449.717224 
	C482.639709,457.265900 479.562500,463.121155 472.348358,466.363617 
	C471.109253,466.920624 470.103271,467.996338 468.989563,468.832397 
z"/>
<path fill="#C48958" opacity="1.000000" stroke="none" 
	d="
M18.163456,451.322815 
	C26.256916,451.313843 34.371914,451.946564 42.487621,451.955841 
	C111.903221,452.035004 181.318954,452.001984 250.734650,452.000183 
	C259.767151,451.999939 261.994965,449.807861 261.997437,440.924713 
	C262.000122,431.269775 261.992462,421.614868 262.011292,411.463318 
	C262.033264,410.966736 262.092529,410.907501 262.548187,410.936768 
	C267.992645,410.965515 272.981476,410.964996 278.053680,411.153229 
	C278.271027,411.585327 278.456818,411.778748 278.750519,412.319946 
	C278.827026,414.042023 278.847473,415.366455 278.800049,417.175354 
	C278.626495,431.427948 278.497101,445.195984 278.427673,458.964325 
	C278.402252,464.004578 275.986633,467.011230 270.618408,468.048798 
	C215.751297,468.010071 161.359039,468.001892 106.766068,468.092896 
	C106.309822,468.366119 106.126816,468.597504 106.016335,468.886292 
	C85.605103,468.935150 65.184654,469.371155 44.786148,468.885406 
	C32.838593,468.600922 23.165857,463.414703 18.163456,451.322815 
z"/>
<path fill="#D1D1D6" opacity="1.000000" stroke="none" 
	d="
M123.080490,226.117752 
	C115.297028,226.585251 107.480415,226.619888 99.242950,226.200928 
	C98.597740,225.504700 98.373375,225.262054 98.149017,225.019394 
	C98.090538,213.382248 97.985512,201.745132 97.981812,190.107971 
	C97.967377,144.705414 97.985031,99.302856 98.260513,53.301083 
	C98.735489,52.462715 98.880394,52.191353 98.964981,51.887775 
	C99.903931,45.979622 104.640930,45.446350 109.133003,45.075600 
	C113.425659,44.721306 117.769562,44.987801 122.554962,45.054070 
	C123.028450,105.312775 123.037895,165.498825 123.080490,226.117752 
z"/>
<path fill="#ECEFF1" opacity="1.000000" stroke="none" 
	d="
M271.093231,468.079376 
	C275.986633,467.011230 278.402252,464.004578 278.427673,458.964325 
	C278.497101,445.195984 278.626495,431.427948 279.277954,417.228333 
	C305.503662,416.774048 331.183594,416.751251 357.199524,416.798096 
	C357.763977,416.854980 357.992432,416.842255 358.552795,416.914734 
	C360.889679,418.324890 362.894592,419.649872 364.899506,420.974823 
	C356.002167,423.916901 352.007751,429.337585 351.961243,438.577820 
	C351.940369,442.725800 351.877625,446.876221 351.984161,451.021667 
	C352.207489,459.712158 358.472504,466.659241 367.588379,468.224243 
	C368.002747,468.449799 368.040466,468.843811 368.040466,468.843811 
	C336.007843,468.892761 303.975189,468.941681 271.485107,468.726868 
	C271.027679,468.463104 271.093231,468.079376 271.093231,468.079376 
z"/>
<path fill="#A89CA8" opacity="1.000000" stroke="none" 
	d="
M422.874878,98.684883 
	C407.606934,98.749557 392.336700,98.949303 377.074127,98.693298 
	C375.334198,98.664124 372.164673,96.099144 372.146027,94.677307 
	C371.939453,78.942795 372.224731,63.201817 372.732758,47.218132 
	C383.690674,57.410973 394.307892,67.833084 404.889252,78.291420 
	C410.895142,84.227509 416.842438,90.222908 422.907776,96.813095 
	C422.957886,97.851364 422.916382,98.268120 422.874878,98.684883 
z"/>
<path fill="#FFD064" opacity="1.000000" stroke="none" 
	d="
M469.446655,468.911682 
	C470.103271,467.996338 471.109253,466.920624 472.348358,466.363617 
	C479.562500,463.121155 482.639709,457.265900 482.969177,449.717224 
	C483.136078,445.893890 483.116211,442.052887 482.973328,438.227570 
	C482.689606,430.632568 479.325684,424.903198 472.508942,420.931549 
	C476.815674,420.261780 480.999298,420.134979 485.182953,420.008179 
	C493.468842,424.038635 498.071777,430.198395 497.051697,439.867035 
	C496.722168,442.990234 496.681213,446.216003 497.056244,449.328796 
	C498.525848,461.526764 489.092377,468.392212 477.880493,468.987335 
	C475.228973,469.128052 472.563019,468.996979 469.446655,468.911682 
z"/>
<path fill="#FFC43A" opacity="1.000000" stroke="none" 
	d="
M484.486816,324.027405 
	C480.130951,324.041107 476.146149,324.041107 470.630615,324.041107 
	C481.673004,318.178406 483.100067,309.302368 483.204102,299.096222 
	C483.314514,288.262726 479.413391,280.862427 469.259369,276.401520 
	C476.440002,276.258911 483.994324,274.487396 490.738129,279.825684 
	C494.661316,282.931244 496.583130,286.721161 496.907013,291.271820 
	C497.306763,296.888000 496.999786,302.554413 496.999725,308.199097 
	C496.999664,315.438019 492.062439,321.869659 484.486816,324.027405 
z"/>
<path fill="#FFC43A" opacity="1.000000" stroke="none" 
	d="
M485.497986,419.875610 
	C480.999298,420.134979 476.815674,420.261780 472.320251,420.651581 
	C471.586853,420.913849 471.165222,420.913086 470.465393,420.580292 
	C475.652100,416.739349 481.285004,413.270844 482.368408,406.113861 
	C482.911407,402.527008 482.721375,398.835266 483.008392,395.202454 
	C483.882019,384.144714 479.638489,376.208832 469.472198,372.035645 
	C470.895447,371.994904 471.930054,371.963776 472.964691,371.932617 
	C476.730865,372.243317 480.497009,372.553986 484.678467,372.904175 
	C493.604675,375.895782 496.999939,380.502960 496.999237,389.098022 
	C496.998932,393.091583 496.647614,397.122711 497.069550,401.071167 
	C498.052887,410.272949 493.551239,415.924622 485.497986,419.875610 
z"/>
<path fill="#DAB090" opacity="1.000000" stroke="none" 
	d="
M270.618408,468.048798 
	C271.093231,468.079376 271.027679,468.463104 271.022034,468.657654 
	C241.753326,468.901123 212.490295,468.967163 183.227219,468.993713 
	C158.117905,469.016479 133.008545,468.994080 107.428329,468.710815 
	C106.957451,468.429993 106.966774,467.993713 106.966774,467.993713 
	C161.359039,468.001892 215.751297,468.010071 270.618408,468.048798 
z"/>
<path fill="#F7E8B2" opacity="1.000000" stroke="none" 
	d="
M368.499207,468.918121 
	C368.040466,468.843811 368.002747,468.449799 367.974670,468.254181 
	C384.050323,468.148285 400.154022,468.238037 416.572815,468.579620 
	C400.911255,468.885132 384.934601,468.938782 368.499207,468.918121 
z"/>
<path fill="#BEB7BF" opacity="1.000000" stroke="none" 
	d="
M423.190918,98.766281 
	C422.916382,98.268120 422.957886,97.851364 423.027374,97.120178 
	C423.385254,97.293602 423.715118,97.781464 424.101135,98.586739 
	C423.940521,98.885330 423.723755,98.866501 423.190918,98.766281 
z"/>
<path fill="#DEDEE0" opacity="1.000000" stroke="none" 
	d="
M98.077240,225.250000 
	C98.373375,225.262054 98.597740,225.504700 98.886688,225.992752 
	C98.773247,226.205994 98.595222,226.173843 98.162674,226.047729 
	C97.908142,225.953735 98.005470,225.480621 98.077240,225.250000 
z"/>
<path fill="#DEDEE0" opacity="1.000000" stroke="none" 
	d="
M98.711716,51.971981 
	C98.880394,52.191353 98.735489,52.462715 98.341461,52.836830 
	C98.254593,52.666588 98.356529,52.361389 98.711716,51.971981 
z"/>
<path fill="#CD915F" opacity="1.000000" stroke="none" 
	d="
M106.766068,468.092896 
	C106.966774,467.993713 106.957451,468.429993 106.961182,468.648071 
	C106.964920,468.866180 106.493156,468.994751 106.254745,468.940521 
	C106.126816,468.597504 106.309822,468.366119 106.766068,468.092896 
z"/>
<path fill="#FFE177" opacity="1.000000" stroke="none" 
	d="
M131.927170,239.017090 
	C130.077164,235.113037 128.227158,231.208984 126.130890,227.020538 
	C120.813576,206.753006 125.565170,188.826950 137.242523,172.335083 
	C138.283432,170.865051 139.147217,169.269592 140.480911,167.338882 
	C143.867844,164.003860 146.867111,161.062332 149.866379,158.120789 
	C155.798065,153.838242 161.647736,149.434570 167.702728,145.334091 
	C170.052933,143.742523 170.354279,142.250366 169.014755,139.972168 
	C166.833099,136.261719 164.738586,132.500046 161.853180,127.436607 
	C181.703094,130.787003 200.455811,133.952209 219.554504,137.553329 
	C215.440811,148.311661 210.923172,158.609558 206.541687,168.965057 
	C203.589874,175.941559 200.830353,182.999420 197.984818,190.020874 
	C195.889511,187.016891 193.794189,184.012924 191.349869,180.586945 
	C190.072052,177.809082 189.143219,175.453201 188.002197,172.559128 
	C173.164154,180.492844 160.802063,189.991104 152.105652,203.502640 
	C143.172577,217.381866 142.616135,232.835724 145.669373,248.961899 
	C143.224915,248.286362 141.676483,247.482315 140.234665,246.518738 
	C138.086060,245.082825 136.012665,243.534363 133.907272,242.033798 
	C133.590042,241.918732 133.351898,241.712387 133.078339,240.892914 
	C132.618317,239.919739 132.272736,239.468414 131.927170,239.017090 
z"/>
<path fill="#A79BA7" opacity="1.000000" stroke="none" 
	d="
M253.617081,235.003296 
	C251.758102,228.446991 250.005722,226.948776 243.455261,226.943817 
	C212.891251,226.920700 182.327240,226.917847 151.319138,226.515442 
	C151.610260,223.739960 152.345474,221.356812 153.343018,218.942291 
	C153.772049,218.854233 153.938766,218.797531 154.105499,218.740814 
	C175.090317,218.786499 196.075104,218.863739 217.059937,218.871597 
	C268.859680,218.891006 320.659393,218.871643 372.459137,218.886749 
	C379.895477,218.888916 382.681091,221.223999 381.808197,227.679108 
	C381.499634,229.960968 379.307098,232.515518 377.262573,233.872940 
	C375.541931,235.015289 372.789093,234.838257 370.492432,234.842697 
	C331.685028,234.917755 292.877502,234.929718 253.617081,235.003296 
z"/>
<path fill="#A79BA7" opacity="1.000000" stroke="none" 
	d="
M219.792740,157.940353 
	C270.592957,157.966110 321.393188,157.986252 372.193420,158.024170 
	C379.204987,158.029404 381.933807,160.500900 382.061066,166.287552 
	C382.162323,170.891373 379.471893,172.831512 375.638000,173.884277 
	C374.701385,174.141464 373.650635,174.011795 372.652374,174.011612 
	C319.686523,174.002274 266.720673,173.987701 213.338013,173.558228 
	C215.211731,168.075287 217.502228,163.007828 219.792740,157.940353 
z"/>
<path fill="#A79BA7" opacity="1.000000" stroke="none" 
	d="
M259.000000,97.150909 
	C271.495880,97.151566 283.492340,97.080673 295.487427,97.179848 
	C302.468597,97.237572 305.099701,100.027168 305.051697,106.300797 
	C305.019745,110.478561 302.703094,112.278908 299.082703,113.014305 
	C297.956848,113.242981 296.758606,113.146034 295.593506,113.146164 
	C247.276779,113.151360 198.960052,113.150993 150.643326,113.148232 
	C149.644089,113.148170 148.644104,113.130280 147.645767,113.089020 
	C143.166122,112.903900 140.707886,109.685905 140.425949,106.102516 
	C140.242493,103.770691 142.408173,100.485924 144.495392,98.962288 
	C146.531540,97.475922 149.804413,97.228127 152.536667,97.220039 
	C187.857544,97.115341 223.178818,97.150742 259.000000,97.150909 
z"/>
<path fill="#A79BA7" opacity="1.000000" stroke="none" 
	d="
M358.015717,280.093140 
	C354.203766,284.072052 351.570587,288.564087 351.313629,294.724060 
	C326.830963,295.113434 302.860413,295.092133 278.615662,294.762268 
	C278.227631,292.650391 277.915009,290.833008 278.041229,289.046600 
	C278.306946,285.287354 277.361694,282.195038 274.011719,279.925720 
	C274.038391,279.700317 274.103546,279.251099 274.103546,279.251099 
	C301.727905,279.224579 329.352264,279.198029 357.466156,279.420959 
	C357.955688,279.670441 358.015717,280.093140 358.015717,280.093140 
z"/>
<path fill="#C48958" opacity="1.000000" stroke="none" 
	d="
M273.985077,280.151093 
	C277.361694,282.195038 278.306946,285.287354 278.041229,289.046600 
	C277.915009,290.833008 278.227631,292.650391 278.567810,295.221283 
	C278.680084,309.684296 278.566040,323.379791 278.024597,337.057861 
	C272.416321,337.045044 267.235443,337.049591 262.027344,337.026855 
	C262.000092,336.999603 261.945709,336.944977 261.945709,336.944977 
	C261.968414,318.320312 261.991119,299.695618 262.026855,280.614258 
	C264.717133,280.093719 267.394348,280.029846 270.891663,279.961792 
	C272.469543,280.022095 273.227295,280.086578 273.985077,280.151093 
z"/>
<path fill="#FED065" opacity="1.000000" stroke="none" 
	d="
M153.080704,218.973663 
	C152.345474,221.356812 151.610260,223.739960 150.838257,226.503113 
	C147.188370,237.039474 149.468170,247.248871 151.240646,258.517761 
	C143.590302,254.149323 138.126541,249.204407 133.975906,242.373779 
	C136.012665,243.534363 138.086060,245.082825 140.234665,246.518738 
	C141.676483,247.482315 143.224915,248.286362 145.669373,248.961899 
	C142.616135,232.835724 143.172577,217.381866 152.105652,203.502640 
	C160.802063,189.991104 173.164154,180.492844 188.002197,172.559128 
	C189.143219,175.453201 190.072052,177.809082 190.995743,180.545059 
	C182.331085,187.466827 173.212540,193.500137 165.188492,200.745560 
	C160.559937,204.925018 157.699371,211.062485 153.767578,216.848816 
	C153.354965,217.910522 153.217834,218.442093 153.080704,218.973663 
M146.485474,250.567734 
	C146.485474,250.567734 146.435577,250.476212 146.485474,250.567734 
z"/>
<path fill="#FED065" opacity="1.000000" stroke="none" 
	d="
M219.847931,157.569733 
	C217.502228,163.007828 215.211731,168.075287 212.859100,173.506592 
	C209.377914,181.157791 205.958878,188.445160 202.099319,196.671448 
	C200.552017,194.293961 199.376114,192.487152 198.092514,190.350616 
	C200.830353,182.999420 203.589874,175.941559 206.541687,168.965057 
	C210.923172,158.609558 215.440811,148.311661 219.968445,137.650787 
	C222.277023,137.670410 224.517685,138.028488 227.650604,138.529175 
	C224.912170,145.128265 222.407654,151.163681 219.847931,157.569733 
z"/>
<path fill="#A89CA8" opacity="1.000000" stroke="none" 
	d="
M149.490295,158.088165 
	C146.867111,161.062332 143.867844,164.003860 140.542175,166.983307 
	C140.730972,161.318787 143.127625,158.904022 149.490295,158.088165 
z"/>
<path fill="#BEB7BF" opacity="1.000000" stroke="none" 
	d="
M274.011719,279.925720 
	C273.227295,280.086578 272.469543,280.022095 271.334991,279.907043 
	C271.782227,279.599396 272.606232,279.342255 273.766907,279.168091 
	C274.103546,279.251099 274.038391,279.700317 274.011719,279.925720 
z"/>
<path fill="#D5D3D9" opacity="1.000000" stroke="none" 
	d="
M153.343018,218.942291 
	C153.217834,218.442093 153.354965,217.910522 153.707458,217.201950 
	C153.963257,217.407059 154.003693,217.789185 154.074814,218.456055 
	C153.938766,218.797531 153.772049,218.854233 153.343018,218.942291 
z"/>
<path fill="#BEB7BF" opacity="1.000000" stroke="none" 
	d="
M358.245911,279.989563 
	C358.015717,280.093140 357.955688,279.670441 357.926270,279.460388 
	C358.104126,279.206390 358.311401,279.162506 358.836792,279.136963 
	C358.928650,279.398895 358.702393,279.642456 358.245911,279.989563 
z"/>
<path fill="#DEDEE0" opacity="1.000000" stroke="none" 
	d="
M253.287750,279.942963 
	C253.049652,279.955414 253.068726,279.470093 253.151031,279.241699 
	C253.467896,279.123627 253.659241,279.285156 253.899414,279.662842 
	C253.991455,279.827759 253.525833,279.930511 253.287750,279.942963 
z"/>
<path fill="#C48958" opacity="1.000000" stroke="none" 
	d="
M262.003662,410.996338 
	C245.160690,411.008392 228.333542,411.377625 211.541031,410.777313 
	C205.084183,410.546478 198.248642,409.122253 192.381927,406.476288 
	C177.396255,399.717529 169.400589,384.436005 172.188690,367.932465 
	C174.669861,353.245758 185.461075,340.523193 202.208710,337.953125 
	C205.307770,337.477570 208.452881,337.062286 211.579193,337.044373 
	C228.059326,336.949890 244.540253,336.991699 261.483307,336.965576 
	C261.945709,336.944977 262.000092,336.999603 262.007996,337.489075 
	C262.041412,362.288208 262.066956,386.597870 262.092529,410.907501 
	C262.092529,410.907501 262.033264,410.966736 262.003662,410.996338 
M213.954727,386.125702 
	C220.916153,383.030823 222.852020,379.298035 221.993896,370.624298 
	C221.515839,365.792114 218.110535,362.862427 210.181488,361.047943 
	C204.084503,360.443237 200.133087,363.431915 197.415283,368.587097 
	C194.712906,373.712982 196.126083,378.221405 199.565338,382.291626 
	C203.196335,386.588776 207.706253,388.333435 213.954727,386.125702 
z"/>
<path fill="#FED065" opacity="1.000000" stroke="none" 
	d="
M131.971527,239.309219 
	C132.272736,239.468414 132.618317,239.919739 132.994812,240.667160 
	C132.689133,240.509277 132.352509,240.055313 131.971527,239.309219 
z"/>
<path fill="#FFE177" opacity="1.000000" stroke="none" 
	d="
M473.033173,371.606415 
	C471.930054,371.963776 470.895447,371.994904 468.994202,372.018890 
	C438.856689,372.008636 409.585571,371.958710 380.314911,372.046692 
	C375.201355,372.062042 370.089508,372.657990 364.873108,372.658051 
	C358.011749,368.807220 352.608673,364.213593 351.876831,355.500793 
	C351.896088,350.023346 351.871552,345.007721 351.911438,339.621643 
	C353.462891,331.280518 358.948395,326.974609 365.923157,324.033661 
	C397.744507,324.024933 429.566040,323.945618 461.387085,324.038391 
	C476.459778,324.082336 483.345459,331.567902 482.993835,345.729706 
	C482.894928,349.714050 483.089294,353.747803 482.523438,357.668610 
	C481.661713,363.639557 477.228210,367.416840 473.033173,371.606415 
z"/>
<path fill="#ECEFF1" opacity="1.000000" stroke="none" 
	d="
M365.559448,324.015869 
	C358.948395,326.974609 353.462891,331.280518 351.457336,339.618896 
	C326.971069,339.991364 303.003265,339.996094 278.958496,339.633118 
	C278.738342,338.535370 278.595154,337.805298 278.451996,337.075256 
	C278.566040,323.379791 278.680084,309.684296 278.841980,295.529846 
	C302.860413,295.092133 326.830963,295.113434 351.240082,295.151672 
	C351.813904,300.670258 351.071533,306.379211 352.309418,311.620453 
	C353.814545,317.993164 358.595428,322.262115 365.559448,324.015869 
z"/>
<path fill="#FFD064" opacity="1.000000" stroke="none" 
	d="
M364.976868,372.985779 
	C370.089508,372.657990 375.201355,372.062042 380.314911,372.046692 
	C409.585571,371.958710 438.856689,372.008636 468.605591,372.028503 
	C479.638489,376.208832 483.882019,384.144714 483.008392,395.202454 
	C482.721375,398.835266 482.911407,402.527008 482.368408,406.113861 
	C481.285004,413.270844 475.652100,416.739349 470.149323,420.578094 
	C460.023712,420.605713 449.937256,420.101715 439.848145,420.042358 
	C417.431610,419.910400 395.013672,419.975952 372.596527,420.039642 
	C370.312866,420.046143 368.030701,420.587219 365.323669,420.927551 
	C362.894592,419.649872 360.889679,418.324890 358.403015,416.703827 
	C357.643005,416.207733 357.364746,416.007721 356.919250,415.512634 
	C353.027405,411.124573 351.656128,406.200989 351.715332,400.399689 
	C348.474152,387.508759 354.017975,376.165955 364.976868,372.985779 
z"/>
<path fill="#B5733E" opacity="1.000000" stroke="none" 
	d="
M278.024597,337.057861 
	C278.595154,337.805298 278.738342,338.535370 278.889709,339.883759 
	C278.870514,340.673309 278.843109,340.844513 278.579926,341.342682 
	C278.498993,346.110931 278.653809,350.552216 278.846497,355.240784 
	C278.929871,355.648438 278.975464,355.808838 278.947571,356.435059 
	C278.949677,371.560516 279.025269,386.220184 279.010742,401.158447 
	C278.884979,401.628967 278.849396,401.820923 278.591095,402.302032 
	C278.516815,404.723206 278.665253,406.855225 278.817078,409.300446 
	C278.763794,410.026886 278.707184,410.440094 278.480896,410.883636 
	C278.311249,410.913971 277.970276,410.964447 277.970276,410.964447 
	C272.981476,410.964996 267.992645,410.965515 262.548157,410.936768 
	C262.066956,386.597870 262.041412,362.288208 262.035217,337.516357 
	C267.235443,337.049591 272.416321,337.045044 278.024597,337.057861 
z"/>
<path fill="#A79BA7" opacity="1.000000" stroke="none" 
	d="
M278.650574,410.853302 
	C278.707184,410.440094 278.763794,410.026886 278.877686,408.868286 
	C278.894562,406.086243 278.854187,404.049530 278.813812,402.012848 
	C278.849396,401.820923 278.884979,401.628967 279.471466,401.144318 
	C303.901794,400.831665 327.781219,400.811737 351.660675,400.791809 
	C351.656128,406.200989 353.027405,411.124573 356.859253,415.742432 
	C356.966461,416.267242 356.863525,416.728455 356.863525,416.728455 
	C331.183594,416.751251 305.503662,416.774048 279.345825,416.743866 
	C278.847473,415.366455 278.827026,414.042023 278.789978,412.051086 
	C278.732452,411.207520 278.691498,411.030396 278.650574,410.853302 
z"/>
<path fill="#CD915F" opacity="1.000000" stroke="none" 
	d="
M278.480896,410.883636 
	C278.691498,411.030396 278.732452,411.207520 278.733948,411.653442 
	C278.456818,411.778748 278.271027,411.585327 278.053680,411.153229 
	C277.970276,410.964447 278.311249,410.913971 278.480896,410.883636 
z"/>
<path fill="#C2BDC4" opacity="1.000000" stroke="none" 
	d="
M357.199524,416.798096 
	C356.863525,416.728455 356.966461,416.267242 357.026489,416.037476 
	C357.364746,416.007721 357.643005,416.207733 358.071045,416.618652 
	C357.992432,416.842255 357.763977,416.854980 357.199524,416.798096 
z"/>
<path fill="#FFE177" opacity="1.000000" stroke="none" 
	d="
M146.460526,250.521973 
	C146.435577,250.476212 146.485474,250.567734 146.460526,250.521973 
z"/>
<path fill="#ECEFF1" opacity="1.000000" stroke="none" 
	d="
M211.010864,361.175232 
	C218.110535,362.862427 221.515839,365.792114 221.993896,370.624298 
	C222.852020,379.298035 220.916153,383.030823 213.212769,386.099091 
	C209.746201,383.928223 206.157394,382.308960 204.471558,379.533691 
	C200.611206,373.178680 203.167130,366.958038 211.010864,361.175232 
z"/>
<path fill="#D1D1D6" opacity="1.000000" stroke="none" 
	d="
M210.596176,361.111572 
	C203.167130,366.958038 200.611206,373.178680 204.471558,379.533691 
	C206.157394,382.308960 209.746201,383.928223 212.859711,386.140533 
	C207.706253,388.333435 203.196335,386.588776 199.565338,382.291626 
	C196.126083,378.221405 194.712906,373.712982 197.415283,368.587097 
	C200.133087,363.431915 204.084503,360.443237 210.596176,361.111572 
z"/>
<path fill="#ECEFF1" opacity="1.000000" stroke="none" 
	d="
M351.715332,400.399689 
	C327.781219,400.811737 303.901794,400.831665 279.561584,400.865723 
	C279.025269,386.220184 278.949677,371.560516 279.413940,356.440369 
	C303.913544,355.974152 327.873291,355.968414 351.833008,355.962646 
	C352.608673,364.213593 358.011749,368.807220 364.873108,372.658081 
	C354.017975,376.165955 348.474152,387.508759 351.715332,400.399689 
z"/>
<path fill="#A79BA7" opacity="1.000000" stroke="none" 
	d="
M351.876831,355.500793 
	C327.873291,355.968414 303.913544,355.974152 279.487427,355.974548 
	C278.975464,355.808838 278.929871,355.648438 278.909180,354.781433 
	C278.894623,349.721802 278.855164,345.368744 278.815704,341.015717 
	C278.843109,340.844513 278.870514,340.673309 278.966705,340.251465 
	C303.003265,339.996094 326.971069,339.991364 351.392944,339.989380 
	C351.871552,345.007721 351.896088,350.023346 351.876831,355.500793 
z"/>
<path fill="#CD915F" opacity="1.000000" stroke="none" 
	d="
M278.579926,341.342682 
	C278.855164,345.368744 278.894623,349.721802 278.871368,354.534180 
	C278.653809,350.552216 278.498993,346.110931 278.579926,341.342682 
z"/>
<path fill="#CD915F" opacity="1.000000" stroke="none" 
	d="
M278.591095,402.302032 
	C278.854187,404.049530 278.894562,406.086243 278.874329,408.555054 
	C278.665253,406.855225 278.516815,404.723206 278.591095,402.302032 
z"/>
</svg>